{
  "source": "C:\\Users\\Peter\\Desktop\\stuff\\MIUN\\quantitative_research\\video_compression\\videos\\BVI-HD\\BVI-HD_CDVL_videos\\ORIG\\TreeGrassFamily_1920x1080_30fps.mp4",
  "output": "C:\\Users\\Peter\\Desktop\\stuff\\MIUN\\quantitative_research\\video_compression\\compressed_videos\\BVI-HD\\vp9\\4\\TreeGrassFamily_1920x1080_30fps_vp9.webm",
  "codec": "vp9",
  "ok": "Input #0, mov,mp4,m4a,3gp,3g2,mj2, from 'C:\\Users\\Peter\\Desktop\\stuff\\MIUN\\quantitative_research\\video_compression\\videos\\BVI-HD\\BVI-HD_CDVL_videos\\ORIG\\TreeGrassFamily_1920x1080_30fps.mp4':\n  Metadata:\n    major_brand     : isom\n    minor_version   : 512\n    compatible_brands: isomiso2avc1mp41\n    encoder         : Lavf54.28.101\n  Duration: 00:00:05.00, start: 0.000000, bitrate: 331787 kb/s\n  Stream #0:0[0x1](und): Video: h264 (High 4:4:4 Predictive) (avc1 / 0x31637661), yuv420p(progressive), 1920x1080, 331784 kb/s, 30 fps, 30 tbr, 30 tbn (default)\n    Metadata:\n      handler_name    : VideoHandler\n      vendor_id       : [0][0][0][0]\n[out#0/webm @ 00000271ce890b80] Codec AVOption b:a (set bitrate (in bits/s)) has not been used for any stream. The most likely reason is either wrong type (e.g. a video option with no video streams) or that it is a private option of some decoder which was not actually used for any stream.\nStream mapping:\n  Stream #0:0 -> #0:0 (h264 (native) -> vp9 (libvpx-vp9))\nPress [q] to stop, [?] for help\n[libvpx-vp9 @ 00000271cf3c07c0] v1.15.2-100-g40561f514\nOutput #0, webm, to 'C:\\Users\\Peter\\Desktop\\stuff\\MIUN\\quantitative_research\\video_compression\\compressed_videos\\BVI-HD\\vp9\\4\\TreeGrassFamily_1920x1080_30fps_vp9.webm':\n  Metadata:\n    major_brand     : isom\n    minor_version   : 512\n    compatible_brands: isomiso2avc1mp41\n    encoder         : Lavf62.3.100\n  Stream #0:0(und): Video: vp9, yuv420p(tv, progressive), 1920x1080, q=2-31, 4000 kb/s, 30 fps, 1k tbn (default)\n    Metadata:\n      encoder         : Lavc62.11.100 libvpx-vp9\n      handler_name    : VideoHandler\n      vendor_id       : [0][0][0][0]\n    Side data:\n      cpb: bitrate max/min/avg: 0/0/0 buffer size: 4000000 vbv_delay: N/A\nframe=    0 fps=0.0 q=0.0 size=       0KiB time=N/A bitrate=N/A speed=N/A elapsed=0:00:00.51    \nframe=    0 fps=0.0 q=0.0 size=       0KiB time=N/A bitrate=N/A speed=N/A elapsed=0:00:01.06    \nframe=    2 fps=1.2 q=23.0 size=       1KiB time=00:00:00.03 bitrate= 152.2kbits/s speed=0.0196x elapsed=0:00:01.70    \nframe=    4 fps=1.8 q=50.0 size=       1KiB time=00:00:00.13 bitrate=  38.0kbits/s speed=0.0584x elapsed=0:00:02.28    \nframe=    7 fps=2.5 q=57.0 size=       1KiB time=00:00:00.23 bitrate=  21.7kbits/s speed=0.0829x elapsed=0:00:02.81    \nframe=   10 fps=3.0 q=56.0 size=       1KiB time=00:00:00.33 bitrate=  15.2kbits/s speed= 0.1x elapsed=0:00:03.32    \nframe=   12 fps=3.1 q=56.0 size=       1KiB time=00:00:00.40 bitrate=  12.7kbits/s speed=0.103x elapsed=0:00:03.87    \nframe=   14 fps=3.2 q=55.0 size=       1KiB time=00:00:00.46 bitrate=  10.9kbits/s speed=0.106x elapsed=0:00:04.41    \nframe=   17 fps=3.4 q=56.0 size=       1KiB time=00:00:00.56 bitrate=   9.0kbits/s speed=0.115x elapsed=0:00:04.93    \nframe=   20 fps=3.7 q=56.0 size=       1KiB time=00:00:00.66 bitrate=   7.6kbits/s speed=0.122x elapsed=0:00:05.45    \nframe=   22 fps=3.7 q=56.0 size=       1KiB time=00:00:00.73 bitrate=   6.9kbits/s speed=0.122x elapsed=0:00:06.00    \nframe=   25 fps=3.8 q=56.0 size=       1KiB time=00:00:00.83 bitrate=   6.1kbits/s speed=0.127x elapsed=0:00:06.54    \nframe=   28 fps=4.0 q=56.0 size=       1KiB time=00:00:00.93 bitrate=   5.4kbits/s speed=0.132x elapsed=0:00:07.08    \nframe=   30 fps=3.9 q=56.0 size=       1KiB time=00:00:01.00 bitrate=   5.1kbits/s speed=0.131x elapsed=0:00:07.62    \nframe=   33 fps=4.0 q=55.0 size=       1KiB time=00:00:01.10 bitrate=   4.6kbits/s speed=0.135x elapsed=0:00:08.14    \nframe=   35 fps=4.0 q=56.0 size=       1KiB time=00:00:01.16 bitrate=   4.3kbits/s speed=0.135x elapsed=0:00:08.66    \nframe=   36 fps=3.9 q=56.0 size=       1KiB time=00:00:01.20 bitrate=   4.2kbits/s speed=0.129x elapsed=0:00:09.30    \nframe=   38 fps=3.8 q=56.0 size=       1KiB time=00:00:01.26 bitrate=   4.0kbits/s speed=0.128x elapsed=0:00:09.88    \nframe=   40 fps=3.8 q=57.0 size=       1KiB time=00:00:01.33 bitrate=   3.8kbits/s speed=0.126x elapsed=0:00:10.54    \nframe=   40 fps=3.6 q=57.0 size=       1KiB time=00:00:01.33 bitrate=   3.8kbits/s speed=0.119x elapsed=0:00:11.17    \nframe=   43 fps=3.7 q=56.0 size=       1KiB time=00:00:01.43 bitrate=   3.5kbits/s speed=0.122x elapsed=0:00:11.75    \nframe=   46 fps=3.7 q=57.0 size=       1KiB time=00:00:01.53 bitrate=   3.3kbits/s speed=0.125x elapsed=0:00:12.29    \nframe=   49 fps=3.8 q=58.0 size=       1KiB time=00:00:01.63 bitrate=   3.1kbits/s speed=0.127x elapsed=0:00:12.82    \nframe=   51 fps=3.8 q=34.0 size=       1KiB time=00:00:01.70 bitrate=   3.0kbits/s speed=0.127x elapsed=0:00:13.41    \nframe=   54 fps=3.9 q=57.0 size=       1KiB time=00:00:01.80 bitrate=   2.8kbits/s speed=0.129x elapsed=0:00:13.95    \nframe=   57 fps=3.9 q=57.0 size=       1KiB time=00:00:01.90 bitrate=   2.7kbits/s speed=0.131x elapsed=0:00:14.47    \nframe=   59 fps=3.9 q=58.0 size=       1KiB time=00:00:01.96 bitrate=   2.6kbits/s speed=0.131x elapsed=0:00:15.03    \nframe=   61 fps=3.9 q=34.0 size=       1KiB time=00:00:02.03 bitrate=   2.5kbits/s speed=0.13x elapsed=0:00:15.58    \nframe=   64 fps=4.0 q=57.0 size=       1KiB time=00:00:02.13 bitrate=   2.4kbits/s speed=0.132x elapsed=0:00:16.13    \nframe=   66 fps=3.9 q=57.0 size=       1KiB time=00:00:02.20 bitrate=   2.3kbits/s speed=0.131x elapsed=0:00:16.73    \nframe=   68 fps=3.9 q=58.0 size=       1KiB time=00:00:02.26 bitrate=   2.2kbits/s speed=0.131x elapsed=0:00:17.30    \nframe=   70 fps=3.9 q=58.0 size=       1KiB time=00:00:02.33 bitrate=   2.2kbits/s speed=0.131x elapsed=0:00:17.85    \nframe=   73 fps=4.0 q=56.0 size=       1KiB time=00:00:02.43 bitrate=   2.1kbits/s speed=0.132x elapsed=0:00:18.43    \nframe=   75 fps=4.0 q=57.0 size=       1KiB time=00:00:02.50 bitrate=   2.0kbits/s speed=0.132x elapsed=0:00:18.97    \nframe=   78 fps=4.0 q=58.0 size=       1KiB time=00:00:02.60 bitrate=   2.0kbits/s speed=0.133x elapsed=0:00:19.49    \nframe=   80 fps=4.0 q=58.0 size=       1KiB time=00:00:02.66 bitrate=   1.9kbits/s speed=0.133x elapsed=0:00:20.03    \nframe=   81 fps=3.9 q=35.0 size=       1KiB time=00:00:02.70 bitrate=   1.9kbits/s speed=0.131x elapsed=0:00:20.59    \nframe=   84 fps=4.0 q=57.0 size=       1KiB time=00:00:02.80 bitrate=   1.8kbits/s speed=0.133x elapsed=0:00:21.12    \nframe=   86 fps=4.0 q=58.0 size=       1KiB time=00:00:02.86 bitrate=   1.8kbits/s speed=0.132x elapsed=0:00:21.65    \nframe=   89 fps=4.0 q=58.0 size=       1KiB time=00:00:02.96 bitrate=   1.7kbits/s speed=0.134x elapsed=0:00:22.17    \nframe=   90 fps=4.0 q=58.0 size=       1KiB time=00:00:03.00 bitrate=   1.7kbits/s speed=0.132x elapsed=0:00:22.72    \nframe=   92 fps=4.0 q=58.0 size=       1KiB time=00:00:03.06 bitrate=   1.7kbits/s speed=0.132x elapsed=0:00:23.25    \nframe=   95 fps=4.0 q=58.0 size=       1KiB time=00:00:03.16 bitrate=   1.6kbits/s speed=0.133x elapsed=0:00:23.78    \nframe=   97 fps=4.0 q=58.0 size=       1KiB time=00:00:03.23 bitrate=   1.6kbits/s speed=0.133x elapsed=0:00:24.30    \nframe=  100 fps=4.0 q=59.0 size=       1KiB time=00:00:03.30 bitrate=   1.5kbits/s speed=0.133x elapsed=0:00:24.82    \nframe=  101 fps=4.0 q=36.0 size=       1KiB time=00:00:03.36 bitrate=   1.5kbits/s speed=0.133x elapsed=0:00:25.37    \nframe=  104 fps=4.0 q=58.0 size=       1KiB time=00:00:03.46 bitrate=   1.5kbits/s speed=0.134x elapsed=0:00:25.91    \nframe=  106 fps=4.0 q=58.0 size=       1KiB time=00:00:03.53 bitrate=   1.4kbits/s speed=0.133x elapsed=0:00:26.47    \nframe=  109 fps=4.0 q=58.0 size=       1KiB time=00:00:03.63 bitrate=   1.4kbits/s speed=0.134x elapsed=0:00:27.04    \nframe=  111 fps=4.0 q=36.0 size=       1KiB time=00:00:03.70 bitrate=   1.4kbits/s speed=0.134x elapsed=0:00:27.57    \nframe=  113 fps=4.0 q=57.0 size=       1KiB time=00:00:03.76 bitrate=   1.3kbits/s speed=0.134x elapsed=0:00:28.10    \nframe=  116 fps=4.1 q=58.0 size=       1KiB time=00:00:03.86 bitrate=   1.3kbits/s speed=0.135x elapsed=0:00:28.62    \nframe=  118 fps=4.0 q=59.0 size=       1KiB time=00:00:03.93 bitrate=   1.3kbits/s speed=0.135x elapsed=0:00:29.14    \nframe=  120 fps=4.0 q=59.0 size=       1KiB time=00:00:04.00 bitrate=   1.3kbits/s speed=0.135x elapsed=0:00:29.66    \nframe=  123 fps=4.1 q=57.0 size=       1KiB time=00:00:04.10 bitrate=   1.2kbits/s speed=0.136x elapsed=0:00:30.18    \nframe=  125 fps=4.1 q=59.0 size=       1KiB time=00:00:04.16 bitrate=   1.2kbits/s speed=0.136x elapsed=0:00:30.69    \nframe=  126 fps=4.0 q=59.0 size=       1KiB time=00:00:04.20 bitrate=   1.2kbits/s speed=0.135x elapsed=0:00:31.21    \nframe=  126 fps=4.0 q=59.0 size=       1KiB time=00:00:04.20 bitrate=   1.2kbits/s speed=0.132x elapsed=0:00:31.77    \nframe=  126 fps=3.9 q=59.0 size=       1KiB time=00:00:04.20 bitrate=   1.2kbits/s speed=0.13x elapsed=0:00:32.30    \nframe=  126 fps=3.8 q=59.0 size=       1KiB time=00:00:04.20 bitrate=   1.2kbits/s speed=0.128x elapsed=0:00:32.86    \nframe=  126 fps=3.8 q=59.0 size=       1KiB time=00:00:04.20 bitrate=   1.2kbits/s speed=0.126x elapsed=0:00:33.38    \nframe=  126 fps=3.7 q=59.0 size=       1KiB time=00:00:04.20 bitrate=   1.2kbits/s speed=0.124x elapsed=0:00:33.95    \nframe=  126 fps=3.7 q=59.0 size=       1KiB time=00:00:04.20 bitrate=   1.2kbits/s speed=0.122x elapsed=0:00:34.50    \nframe=  126 fps=3.6 q=59.0 size=       1KiB time=00:00:04.20 bitrate=   1.2kbits/s speed=0.12x elapsed=0:00:35.06    \nframe=  126 fps=3.5 q=59.0 size=       1KiB time=00:00:04.20 bitrate=   1.2kbits/s speed=0.118x elapsed=0:00:35.63    \n[out#0/webm @ 00000271ce890b80] video:2947KiB audio:0KiB subtitle:0KiB other streams:0KiB global headers:0KiB muxing overhead: 0.058483%\nframe=  150 fps=4.2 q=58.0 Lsize=    2949KiB time=00:00:05.00 bitrate=4831.6kbits/s speed=0.139x elapsed=0:00:35.94    \n",
  "seconds": 36.305710792541504,
  "probe_out": {}
}